<?xml version="1.0" encoding="UTF-8" standalone="no"?>
<svg
   viewBox="0 0 384 512"
   version="1.1"
   id="svg1"
   sodipodi:docname="moon-solid.svg"
   inkscape:version="1.3.2 (091e20ef0f, 2023-11-25, custom)"
   xmlns:inkscape="http://www.inkscape.org/namespaces/inkscape"
   xmlns:sodipodi="http://sodipodi.sourceforge.net/DTD/sodipodi-0.dtd"
   xmlns="http://www.w3.org/2000/svg"
   xmlns:svg="http://www.w3.org/2000/svg">
  <defs
     id="defs1" />
  <sodipodi:namedview
     id="namedview1"
     pagecolor="#505050"
     bordercolor="#eeeeee"
     borderopacity="1"
     inkscape:showpageshadow="0"
     inkscape:pageopacity="0"
     inkscape:pagecheckerboard="0"
     inkscape:deskcolor="#505050"
     inkscape:zoom="2.0292969"
     inkscape:cx="191.9384"
     inkscape:cy="255.75361"
     inkscape:window-width="1495"
     inkscape:window-height="1038"
     inkscape:window-x="0"
     inkscape:window-y="0"
     inkscape:window-maximized="1"
     inkscape:current-layer="svg1" />
  <!--!Font Awesome Free 6.5.1 by @fontawesome - https://fontawesome.com License - https://fontawesome.com/license/free Copyright 2024 Fonticons, Inc.-->
  <path
     d="M223.5 32C100 32 0 132.3 0 256S100 480 223.5 480c60.6 0 115.5-24.2 155.8-63.4c5-4.9 6.3-12.5 3.1-18.7s-10.1-9.7-17-8.5c-9.8 1.7-19.8 2.6-30.1 2.6c-96.9 0-175.5-78.8-175.5-176c0-65.8 36-123.1 89.3-153.3c6.1-3.5 9.2-10.5 7.7-17.3s-7.3-11.9-14.3-12.5c-6.3-.5-12.6-.8-19-.8z"
     id="path1" />
  <path
     style="fill:#d65d0e;stroke-width:0.492782;fill-opacity:1"
     d="M 207.21463,479.2263 C 170.68882,476.07417 138.17927,465.69181 108.33204,447.64682 72.538637,426.00689 42.794296,393.84162 24.203936,356.6714 6.7659474,321.80527 -0.85344033,286.38475 0.56505641,246.78051 2.109932,203.64779 16.632621,161.19973 41.919775,125.90568 56.246999,105.90874 75.913841,86.447765 96.092397,72.300123 123.18377,53.305755 155.25584,40.356593 188.48893,34.994848 c 14.48317,-2.336679 33.07646,-3.227804 47.53018,-2.277991 7.42477,0.487912 8.97411,0.735778 11.33397,1.81324 5.74335,2.622281 9.38499,8.08147 9.3857,14.070122 7.3e-4,6.087725 -2.4618,10.318797 -8.05172,13.83432 -8.94054,5.622738 -18.33213,12.084705 -23.23951,15.990143 -7.01679,5.584165 -21.55026,20.10789 -27.0487,27.030568 -21.2027,26.69471 -33.55665,56.52751 -37.85385,91.41097 -0.99924,8.1115 -0.84002,32.15781 0.26755,40.40808 4.12647,30.73807 14.34587,57.05926 31.5317,81.21338 5.95004,8.36258 11.05252,14.32871 19.27385,22.53615 29.11569,29.06651 67.05175,46.78973 108.12674,50.51537 9.59912,0.87067 30.81382,0.35127 39.72508,-0.9726 8.6635,-1.28706 10.86496,-1.28196 14.38045,0.0334 3.39763,1.27121 7.13615,4.79307 8.69499,8.19109 1.65724,3.61251 1.52735,9.31693 -0.29673,13.03147 -3.26481,6.64843 -25.56152,24.94175 -43.70773,35.85996 -28.63297,17.22789 -58.33641,27.11241 -93.38209,31.0751 -5.99323,0.67766 -31.82538,0.99677 -37.94418,0.46872 z"
     id="path2" />
</svg>
