<?xml version="1.0" encoding="UTF-8" standalone="no"?>
<svg
   viewBox="0 0 512 512"
   version="1.1"
   id="svg1"
   sodipodi:docname="power-off-solid.svg"
   inkscape:version="1.3.2 (091e20ef0f, 2023-11-25, custom)"
   xmlns:inkscape="http://www.inkscape.org/namespaces/inkscape"
   xmlns:sodipodi="http://sodipodi.sourceforge.net/DTD/sodipodi-0.dtd"
   xmlns="http://www.w3.org/2000/svg"
   xmlns:svg="http://www.w3.org/2000/svg">
  <defs
     id="defs1" />
  <sodipodi:namedview
     id="namedview1"
     pagecolor="#505050"
     bordercolor="#eeeeee"
     borderopacity="1"
     inkscape:showpageshadow="0"
     inkscape:pageopacity="0"
     inkscape:pagecheckerboard="0"
     inkscape:deskcolor="#505050"
     inkscape:zoom="2.0195312"
     inkscape:cx="256.24758"
     inkscape:cy="256"
     inkscape:window-width="1495"
     inkscape:window-height="1038"
     inkscape:window-x="0"
     inkscape:window-y="0"
     inkscape:window-maximized="1"
     inkscape:current-layer="svg1" />
  <!--!Font Awesome Free 6.5.1 by @fontawesome - https://fontawesome.com License - https://fontawesome.com/license/free Copyright 2024 Fonticons, Inc.-->
  <path
     d="M288 32c0-17.7-14.3-32-32-32s-32 14.3-32 32V256c0 17.7 14.3 32 32 32s32-14.3 32-32V32zM143.5 120.6c13.6-11.3 15.4-31.5 4.1-45.1s-31.5-15.4-45.1-4.1C49.7 115.4 16 181.8 16 256c0 132.5 107.5 240 240 240s240-107.5 240-240c0-74.2-33.8-140.6-86.6-184.6c-13.6-11.3-33.8-9.4-45.1 4.1s-9.4 33.8 4.1 45.1c38.9 32.3 63.5 81 63.5 135.4c0 97.2-78.8 176-176 176s-176-78.8-176-176c0-54.4 24.7-103.1 63.5-135.4z"
     id="path1" />
  <path
     style="fill:#d65d0e;stroke-width:0.495164"
     d="M 246.34429,495.616 C 227.16308,494.46688 213.35178,492.4481 197.5706,488.4868 118.50792,468.64096 54.482274,409.31043 28.708565,332.00774 17.021329,296.95438 13.587624,261.33574 18.350115,224.55706 25.921385,166.08738 55.943973,111.14485 101.25052,72.846037 c 8.88105,-7.507388 18.98255,-10.139874 29.41573,-7.665843 6.81679,1.616472 14.69534,7.166928 18.66757,13.151348 7.0493,10.620214 7.06149,24.623888 0.0307,35.199778 -2.34456,3.52673 -2.96401,4.14982 -11.67676,11.74528 -2.81161,2.45106 -7.57383,7.13036 -10.58271,10.39845 -26.33994,28.60906 -41.714942,62.02925 -46.471388,101.01354 -1.006065,8.2458 -0.845082,32.3968 0.270647,40.60348 1.710957,12.58482 3.891403,22.41178 7.3063,32.92843 20.554071,63.29917 74.358701,109.31866 140.060231,119.79456 10.94479,1.74512 18.08752,2.16408 31.84473,1.8679 13.44052,-0.28937 19.57856,-0.91341 30.54599,-3.10552 66.38789,-13.2693 119.76038,-64.16628 136.16061,-129.84526 9.13945,-36.60129 6.23993,-76.08216 -8.13505,-110.7697 -5.56925,-13.4389 -15.91455,-30.83362 -25.32638,-42.58414 -4.53379,-5.66036 -17.86983,-19.31718 -24.66626,-25.25957 -7.59074,-6.63688 -11.27597,-14.44245 -11.33549,-24.009292 -0.0581,-9.342881 2.62628,-15.871011 9.28709,-22.585023 3.22232,-3.248058 4.78966,-4.398701 8.19343,-6.015095 5.46802,-2.596675 8.60714,-3.318836 14.35977,-3.303491 7.47874,0.01995 13.80842,2.298092 19.86959,7.151345 5.7992,4.6435 16.67643,14.969405 22.78297,21.628211 31.26956,34.097515 51.85512,75.234625 60.0551,120.010925 4.24424,23.17587 4.87802,50.50719 1.72741,74.49417 -12.45069,94.7927 -81.63315,174.05136 -174.15687,199.52224 -12.65579,3.48401 -27.32779,6.16086 -40.76513,7.43744 -7.73235,0.73458 -26.75362,1.30214 -32.36801,0.9658 z"
     id="path2" />
  <path
     style="fill:#d65d0e;stroke-width:0.495164"
     d="m 251.7911,287.46784 c -11.08121,-1.78146 -20.14986,-8.52286 -24.62812,-18.30791 -3.00224,-6.55992 -2.83553,0.78629 -2.8449,-125.35925 -0.008,-113.511941 0.01,-115.73656 0.96786,-119.483413 6.11716,-23.91786338 35.66959,-32.1207055 52.9898,-14.7083318 4.33833,4.3614068 6.96135,8.9334518 8.43832,14.7083318 0.95828,3.746853 0.9763,5.971472 0.96787,119.483413 -0.009,126.14554 0.15733,118.79933 -2.84491,125.35925 -3.84968,8.41159 -11.93987,15.23893 -20.7064,17.47421 -3.80374,0.96987 -9.21735,1.33564 -12.33952,0.8337 z"
     id="path3" />
</svg>
