<?xml version="1.0" encoding="UTF-8" standalone="no"?>
<svg
   viewBox="0 0 512 512"
   version="1.1"
   id="svg1"
   sodipodi:docname="right-from-bracket-solid.svg"
   inkscape:version="1.3.2 (091e20ef0f, 2023-11-25, custom)"
   xmlns:inkscape="http://www.inkscape.org/namespaces/inkscape"
   xmlns:sodipodi="http://sodipodi.sourceforge.net/DTD/sodipodi-0.dtd"
   xmlns="http://www.w3.org/2000/svg"
   xmlns:svg="http://www.w3.org/2000/svg">
  <defs
     id="defs1" />
  <sodipodi:namedview
     id="namedview1"
     pagecolor="#505050"
     bordercolor="#eeeeee"
     borderopacity="1"
     inkscape:showpageshadow="0"
     inkscape:pageopacity="0"
     inkscape:pagecheckerboard="0"
     inkscape:deskcolor="#505050"
     inkscape:zoom="2.0195312"
     inkscape:cx="256.24758"
     inkscape:cy="256"
     inkscape:window-width="1495"
     inkscape:window-height="1038"
     inkscape:window-x="0"
     inkscape:window-y="0"
     inkscape:window-maximized="1"
     inkscape:current-layer="svg1" />
  <!--!Font Awesome Free 6.5.1 by @fontawesome - https://fontawesome.com License - https://fontawesome.com/license/free Copyright 2024 Fonticons, Inc.-->
  <path
     d="M377.9 105.9L500.7 228.7c7.2 7.2 11.3 17.1 11.3 27.3s-4.1 20.1-11.3 27.3L377.9 406.1c-6.4 6.4-15 9.9-24 9.9c-18.7 0-33.9-15.2-33.9-33.9l0-62.1-128 0c-17.7 0-32-14.3-32-32l0-64c0-17.7 14.3-32 32-32l128 0 0-62.1c0-18.7 15.2-33.9 33.9-33.9c9 0 17.6 3.6 24 9.9zM160 96L96 96c-17.7 0-32 14.3-32 32l0 256c0 17.7 14.3 32 32 32l64 0c17.7 0 32 14.3 32 32s-14.3 32-32 32l-64 0c-53 0-96-43-96-96L0 128C0 75 43 32 96 32l64 0c17.7 0 32 14.3 32 32s-14.3 32-32 32z"
     id="path1" />
  <path
     style="fill:#d65d0e;stroke-width:0.495164"
     d="m 346.61509,414.92251 c -5.41303,-1.15924 -11.7987,-4.66441 -15.98949,-8.7768 -4.23033,-4.1512 -6.64894,-7.93993 -8.60848,-13.48509 l -1.39816,-3.95656 -0.13984,-34.53772 -0.13983,-34.53771 -66.2122,-0.007 c -73.50699,-0.008 -69.18434,0.18111 -76.36307,-3.34315 -5.26277,-2.58367 -11.54942,-8.84651 -14.03345,-13.98029 -3.39569,-7.01793 -3.2973,-5.6365 -3.2973,-46.29787 0,-40.68717 -0.0988,-39.30685 3.31248,-46.29787 2.55204,-5.23016 8.85664,-11.5264 14.03637,-14.01775 7.24451,-3.48447 2.9281,-3.29757 76.34497,-3.30569 l 66.2122,-0.007 0.13983,-34.53771 0.13984,-34.53772 1.52772,-4.2672 c 6.97158,-19.472871 28.66237,-28.218759 47.05766,-18.974 2.00571,1.00799 5.42093,3.4407 7.92263,5.6434 2.41846,2.12941 31.72658,31.24785 65.12914,64.70765 47.15177,47.23256 61.22843,61.61105 62.95233,64.30214 4.48481,7.00101 6.33766,13.22588 6.33766,21.29207 0,8.06623 -1.85288,14.29115 -6.3377,21.29207 -1.72376,2.69084 -15.74952,17.01794 -62.70474,64.05189 -33.26637,33.32216 -62.57626,62.46494 -65.13308,64.76175 -9.10031,8.17485 -19.64192,11.19685 -30.75549,8.8168 z"
     id="path2" />
  <path
     style="fill:#d65d0e;stroke-width:0.495164"
     d="m 86.158607,479.25016 c -0.680851,-0.0999 -2.909091,-0.42168 -4.951644,-0.71498 C 55.763584,474.88174 31.26603,459.2231 16.586296,437.23017 6.8456589,422.63692 1.585845,406.94555 0.48611815,389.19923 c -0.60752504,-9.80365 -0.60752504,-256.59481 0,-266.39846 C 1.585845,105.05445 6.8456589,89.363079 16.586296,74.769826 31.640722,52.215544 55.592747,37.168824 82.756006,33.201854 c 7.746852,-1.131364 80.436534,-1.147118 84.876904,-0.01839 5.74742,1.460969 10.01506,3.978213 14.65063,8.641593 6.51645,6.555541 9.32209,13.261399 9.33777,22.318497 0.0242,13.984789 -9.40496,26.363924 -23.26541,30.544137 -2.39729,0.723004 -7.28897,0.85446 -40.85106,1.097784 l -38.127664,0.276426 -3.631833,1.326649 c -5.15075,1.881486 -8.709749,4.1262 -12.439906,7.84602 -3.783522,3.77303 -6.543237,8.24876 -8.083411,13.10973 l -1.098235,3.46615 V 256 390.18956 l 1.098235,3.46615 c 1.540174,4.86097 4.299889,9.33669 8.083411,13.10973 3.730157,3.71982 7.289156,5.96453 12.439906,7.84602 l 3.631833,1.32664 38.127664,0.27643 c 33.56209,0.24332 38.45377,0.37478 40.85106,1.09778 8.66814,2.61425 16.024,8.66347 19.72464,16.22089 2.63997,5.39137 3.54985,9.07205 3.54077,14.32325 -0.0157,9.06273 -2.84937,15.81112 -9.37291,22.32151 -4.72606,4.71654 -8.13495,6.76966 -13.88607,8.36338 -3.60716,0.99959 -4.6723,1.02369 -42.33303,0.95796 -21.24803,-0.0371 -39.189842,-0.1492 -39.870693,-0.24914 z"
     id="path3" />
</svg>
