<?xml version="1.0" encoding="UTF-8" standalone="no"?>
<svg
   viewBox="0 0 512 512"
   version="1.1"
   id="svg1"
   sodipodi:docname="rotate-right-solid.svg"
   inkscape:version="1.3.2 (091e20ef0f, 2023-11-25, custom)"
   xmlns:inkscape="http://www.inkscape.org/namespaces/inkscape"
   xmlns:sodipodi="http://sodipodi.sourceforge.net/DTD/sodipodi-0.dtd"
   xmlns="http://www.w3.org/2000/svg"
   xmlns:svg="http://www.w3.org/2000/svg">
  <defs
     id="defs1" />
  <sodipodi:namedview
     id="namedview1"
     pagecolor="#505050"
     bordercolor="#eeeeee"
     borderopacity="1"
     inkscape:showpageshadow="0"
     inkscape:pageopacity="0"
     inkscape:pagecheckerboard="0"
     inkscape:deskcolor="#505050"
     inkscape:zoom="2.0195312"
     inkscape:cx="256.24758"
     inkscape:cy="256"
     inkscape:window-width="1495"
     inkscape:window-height="1038"
     inkscape:window-x="0"
     inkscape:window-y="0"
     inkscape:window-maximized="1"
     inkscape:current-layer="svg1" />
  <!--!Font Awesome Free 6.5.1 by @fontawesome - https://fontawesome.com License - https://fontawesome.com/license/free Copyright 2024 Fonticons, Inc.-->
  <path
     d="M463.5 224H472c13.3 0 24-10.7 24-24V72c0-9.7-5.8-18.5-14.8-22.2s-19.3-1.7-26.2 5.2L413.4 96.6c-87.6-86.5-228.7-86.2-315.8 1c-87.5 87.5-87.5 229.3 0 316.8s229.3 87.5 316.8 0c12.5-12.5 12.5-32.8 0-45.3s-32.8-12.5-45.3 0c-62.5 62.5-163.8 62.5-226.3 0s-62.5-163.8 0-226.3c62.2-62.2 162.7-62.5 225.3-1L327 183c-6.9 6.9-8.9 17.2-5.2 26.2s12.5 14.8 22.2 14.8H463.5z"
     id="path1" />
  <path
     style="fill:#d65d0e;stroke-width:0.495164"
     d="m 356.92254,131.49294 c -18.00426,-15.18526 -43.31403,-27.22926 -68.24169,-32.473744 -17.91616,-3.769345 -40.76364,-4.225407 -58.92456,-1.176194 -26.50203,4.449668 -51.62401,15.478478 -72.4178,31.792158 l -4.82785,3.78767 V 95.379747 57.33666 l 5.5706,-2.616628 c 10.40571,-4.887782 16.93977,-7.517131 27.11025,-10.909349 23.90015,-7.97155 45.10086,-11.377414 70.82177,-11.377414 25.26303,0 46.32848,3.312551 69.80492,10.976853 11.88603,3.880405 33.85026,13.367504 34.42338,14.868625 0.13561,0.3552 0.18896,17.601762 0.11856,38.325695 l -0.12801,37.679878 z"
     id="path2" />
  <path
     style="fill:#d65d0e;stroke-width:0.495164"
     d="m 337.70213,222.85718 c -1.22553,-0.34156 -3.34236,-1.19313 -4.70406,-1.89239 -10.89329,-5.59391 -15.68223,-19.39164 -10.62904,-30.6241 1.58957,-3.53338 2.44209,-4.4616 23.96454,-26.09279 l 22.31633,-22.42908 -4.10261,-3.81463 -4.10261,-3.81463 0.0175,-38.04863 0.0175,-38.048625 3.83752,2.099699 c 14.56967,7.971783 29.45337,18.731856 43.13393,31.183373 l 6.11121,5.562183 22.35615,-22.300334 c 23.68107,-23.621931 24.11798,-23.990458 30.37451,-25.620075 12.48354,-3.251549 25.9179,4.941861 28.82917,17.582462 0.34032,1.477689 0.51726,24.834832 0.52529,69.342777 0.0132,73.28134 0.13856,69.92129 -2.81049,75.33967 -2.93753,5.3972 -7.93235,9.45669 -13.90565,11.30165 -3.11229,0.96129 -4.68399,0.98204 -71.09181,0.93874 -52.8205,-0.0344 -68.40424,-0.18225 -70.13739,-0.66527 z"
     id="path3" />
  <path
     style="fill:#d65d0e;stroke-width:0.495164"
     d="M 239.41199,479.24382 C 188.27579,475.05046 141.60588,454.69487 104.22356,420.27991 84.780911,402.38059 67.727594,379.75848 55.918352,356.20052 43.513236,331.45387 36.086142,305.38176 33.087268,276.05416 c -0.818232,-8.00194 -0.818232,-32.10638 0,-40.10832 5.126554,-50.13533 23.80443,-92.76569 56.890285,-129.8463 13.744727,-15.404249 31.799327,-30.392211 49.716357,-41.271843 4.68726,-2.846216 12.28295,-7.141043 12.62941,-7.141043 0.10302,0 0.18732,16.949192 0.18732,37.664871 V 133.0164 l -8.58095,8.5092 c -4.71951,4.68007 -10.5287,10.96028 -12.9093,13.95602 -19.45867,24.48681 -31.058005,52.69217 -34.515996,83.93037 -0.809148,7.30956 -0.815486,25.8956 -0.01123,32.92844 4.339426,37.94603 19.875026,70.56186 46.112236,96.80916 20.9521,20.96016 46.24128,35.26824 74.78048,42.30922 44.46785,10.97077 90.86956,2.66596 128.73404,-23.04035 7.29944,-4.95561 11.9176,-8.6812 20.76866,-16.75459 7.60881,-6.94029 11.16798,-9.16528 17.11142,-10.6971 3.60348,-0.92874 10.48951,-1.03986 14.43299,-0.2329 6.61283,1.3532 14.22395,6.14972 18.29568,11.52994 4.54811,6.00967 6.6369,12.11885 6.6369,19.41124 0,5.51844 -0.87844,9.13411 -3.54892,14.60735 -1.75446,3.59582 -2.85367,5.00641 -7.54634,9.68405 -28.72382,28.63183 -67.65353,49.70181 -108.23936,58.58252 -16.69301,3.65266 -25.50453,4.57649 -45.30755,4.75019 -9.25957,0.0812 -17.94971,0.0563 -19.31141,-0.0553 z"
     id="path4" />
</svg>
